<svg width="90" height="90" viewBox="0 0 90 90" fill="none" xmlns="http://www.w3.org/2000/svg">
<rect width="90" height="90" rx="30" fill="#1E1E1E"/>
<path d="M48.3991 22.2524C49.2028 21.4505 50.2927 21 51.4291 21C52.5656 21 53.6555 21.4505 54.4592 22.2524L73.7452 41.5016C74.5486 42.3037 75 43.3916 75 44.5258C75 45.6601 74.5486 46.7479 73.7452 47.5501L54.4592 66.7992C53.6509 67.5784 52.5683 68.0096 51.4445 67.9998C50.3208 67.9901 49.2459 67.5402 48.4513 66.7471C47.6567 65.954 47.2059 64.8811 47.1962 63.7596C47.1864 62.638 47.6184 61.5575 48.3991 60.7507L60.0007 48.8034H19.2858C18.1491 48.8034 17.059 48.3527 16.2553 47.5505C15.4515 46.7483 15 45.6603 15 44.5258C15 43.3913 15.4515 42.3033 16.2553 41.5011C17.059 40.6989 18.1491 40.2482 19.2858 40.2482H60.0007L48.3991 28.3009C47.5956 27.4988 47.1443 26.4109 47.1443 25.2767C47.1443 24.1424 47.5956 23.0546 48.3991 22.2524Z" fill="white"/>
</svg>
