<svg width="50" height="50" viewBox="0 0 50 50" fill="none" xmlns="http://www.w3.org/2000/svg">
<g id="send">
<rect id="Rectangle 1135" width="50" height="50" rx="10" fill="#1E1E1E"/>
<path id="Vector" d="M26.5961 11.7728C27.0917 11.278 27.7638 11 28.4646 11C29.1654 11 29.8375 11.278 30.3332 11.7728L42.2262 23.6499C42.7217 24.1449 43 24.8161 43 25.5159C43 26.2158 42.7217 26.887 42.2262 27.382L30.3332 39.2591C29.8347 39.7399 29.1671 40.0059 28.4741 39.9999C27.7812 39.9939 27.1183 39.7163 26.6283 39.2269C26.1383 38.7376 25.8603 38.0756 25.8543 37.3836C25.8483 36.6915 26.1147 36.0248 26.5961 35.527L33.7504 28.1553H8.6429C7.94196 28.1553 7.26973 27.8772 6.77409 27.3822C6.27845 26.8873 6 26.2159 6 25.5159C6 24.8159 6.27845 24.1446 6.77409 23.6496C7.26973 23.1546 7.94196 22.8766 8.6429 22.8766H33.7504L26.5961 15.5048C26.1006 15.0099 25.8223 14.3387 25.8223 13.6388C25.8223 12.9389 26.1006 12.2677 26.5961 11.7728Z" fill="white"/>
</g>
</svg>
