<svg width="20" height="24" viewBox="0 0 20 24" fill="none" xmlns="http://www.w3.org/2000/svg">
<path id="lock" d="M2.5 24C1.8125 24 1.22417 23.7764 0.735 23.3291C0.245833 22.8819 0.000833333 22.3436 0 21.7143V10.2857C0 9.65714 0.245 9.11924 0.735 8.672C1.225 8.22476 1.81333 8.00076 2.5 8H3.75V5.71429C3.75 4.13333 4.35958 2.7859 5.57875 1.672C6.79792 0.558095 8.27167 0.000761905 10 0C11.7292 0 13.2033 0.557333 14.4225 1.672C15.6417 2.78667 16.2508 4.13409 16.25 5.71429V8H17.5C18.1875 8 18.7762 8.224 19.2662 8.672C19.7562 9.12 20.0008 9.6579 20 10.2857V21.7143C20 22.3429 19.7554 22.8811 19.2662 23.3291C18.7771 23.7771 18.1883 24.0008 17.5 24H2.5ZM10 18.2857C10.6875 18.2857 11.2762 18.0621 11.7662 17.6149C12.2562 17.1676 12.5008 16.6293 12.5 16C12.5 15.3714 12.2554 14.8335 11.7662 14.3863C11.2771 13.939 10.6883 13.715 10 13.7143C9.3125 13.7143 8.72417 13.9383 8.235 14.3863C7.74583 14.8343 7.50083 15.3722 7.5 16C7.5 16.6286 7.745 17.1669 8.235 17.6149C8.725 18.0629 9.31333 18.2865 10 18.2857ZM6.25 8H13.75V5.71429C13.75 4.7619 13.3854 3.95238 12.6562 3.28571C11.9271 2.61905 11.0417 2.28571 10 2.28571C8.95833 2.28571 8.07292 2.61905 7.34375 3.28571C6.61458 3.95238 6.25 4.7619 6.25 5.71429V8Z" fill="white"/>
</svg>
