<svg width="40" height="29" viewBox="0 0 40 29" fill="none" xmlns="http://www.w3.org/2000/svg">
<g id="Group">
<path id="Vector" fill-rule="evenodd" clip-rule="evenodd" d="M30.5149 8.51758C31.0318 8.21219 31.6984 8.0649 32.3683 8.10811C33.0382 8.15131 33.6565 8.38147 34.0873 8.74798L39.3723 13.248C39.784 13.6161 39.9765 14.0838 39.9086 14.5513C39.8407 15.0187 39.5179 15.4488 39.009 15.7496C38.5002 16.0504 37.8457 16.1982 37.1854 16.1612C36.5251 16.1243 35.9113 15.9057 35.4752 15.552L30.1901 11.052C29.7597 10.6853 29.5521 10.2123 29.613 9.73709C29.6739 9.26183 29.9983 8.82319 30.5149 8.51758Z" fill="#1E1E1E"/>
<path id="Vector_2" fill-rule="evenodd" clip-rule="evenodd" d="M30.5149 20.2824C29.9979 19.9771 29.673 19.5386 29.6117 19.0633C29.5503 18.588 29.7575 18.1149 30.1876 17.748L35.4752 13.248C35.6855 13.06 35.9466 12.9037 36.2433 12.7884C36.54 12.673 36.8662 12.6009 37.2027 12.5763C37.5393 12.5517 37.8793 12.5751 38.2029 12.6451C38.5265 12.7152 38.8271 12.8304 39.087 12.984C39.3469 13.1377 39.5609 13.3267 39.7163 13.5399C39.8718 13.753 39.9655 13.9861 39.9921 14.2254C40.0187 14.4647 39.9776 14.7053 39.8711 14.9331C39.7647 15.161 39.5951 15.3714 39.3723 15.552L34.0873 20.052C33.6566 20.4185 33.0383 20.6487 32.3684 20.6919C31.6985 20.7351 31.0318 20.5878 30.5149 20.2824Z" fill="#1E1E1E"/>
<path id="Vector_3" fill-rule="evenodd" clip-rule="evenodd" d="M36.7895 14.4C36.7895 14.8774 36.5222 15.3352 36.0464 15.6728C35.5706 16.0104 34.9252 16.2 34.2523 16.2H17.7605C17.0875 16.2 16.4422 16.0104 15.9664 15.6728C15.4906 15.3352 15.2232 14.8774 15.2232 14.4C15.2232 13.9226 15.4906 13.4648 15.9664 13.1272C16.4422 12.7896 17.0875 12.6 17.7605 12.6H34.2523C34.9252 12.6 35.5706 12.7896 36.0464 13.1272C36.5222 13.4648 36.7895 13.9226 36.7895 14.4ZM0 1.8C0 1.32261 0.267312 0.864773 0.743131 0.527208C1.21895 0.189642 1.8643 0 2.53721 0H25.3721C26.045 0 26.6903 0.189642 27.1662 0.527208C27.642 0.864773 27.9093 1.32261 27.9093 1.8C27.9093 2.27739 27.642 2.73523 27.1662 3.07279C26.6903 3.41036 26.045 3.6 25.3721 3.6H2.53721C1.8643 3.6 1.21895 3.41036 0.743131 3.07279C0.267312 2.73523 0 2.27739 0 1.8ZM0 27C0 26.5226 0.267312 26.0648 0.743131 25.7272C1.21895 25.3896 1.8643 25.2 2.53721 25.2H25.3721C26.045 25.2 26.6903 25.3896 27.1662 25.7272C27.642 26.0648 27.9093 26.5226 27.9093 27C27.9093 27.4774 27.642 27.9352 27.1662 28.2728C26.6903 28.6104 26.045 28.8 25.3721 28.8H2.53721C1.8643 28.8 1.21895 28.6104 0.743131 28.2728C0.267312 27.9352 0 27.4774 0 27Z" fill="#1E1E1E"/>
<path id="Vector_4" fill-rule="evenodd" clip-rule="evenodd" d="M25.3721 0C26.045 0 26.6903 0.189642 27.1662 0.527208C27.642 0.864773 27.9093 1.32261 27.9093 1.8V9C27.9093 9.47739 27.642 9.93523 27.1662 10.2728C26.6903 10.6104 26.045 10.8 25.3721 10.8C24.6992 10.8 24.0538 10.6104 23.578 10.2728C23.1022 9.93523 22.8349 9.47739 22.8349 9V1.8C22.8349 1.32261 23.1022 0.864773 23.578 0.527208C24.0538 0.189642 24.6992 0 25.3721 0ZM25.3721 18C26.045 18 26.6903 18.1896 27.1662 18.5272C27.642 18.8648 27.9093 19.3226 27.9093 19.8V27C27.9093 27.4774 27.642 27.9352 27.1662 28.2728C26.6903 28.6104 26.045 28.8 25.3721 28.8C24.6992 28.8 24.0538 28.6104 23.578 28.2728C23.1022 27.9352 22.8349 27.4774 22.8349 27V19.8C22.8349 19.3226 23.1022 18.8648 23.578 18.5272C24.0538 18.1896 24.6992 18 25.3721 18ZM2.53721 0C3.21012 0 3.85547 0.189642 4.33128 0.527208C4.8071 0.864773 5.07442 1.32261 5.07442 1.8V27C5.07442 27.4774 4.8071 27.9352 4.33128 28.2728C3.85547 28.6104 3.21012 28.8 2.53721 28.8C1.8643 28.8 1.21895 28.6104 0.743131 28.2728C0.267312 27.9352 0 27.4774 0 27V1.8C0 1.32261 0.267312 0.864773 0.743131 0.527208C1.21895 0.189642 1.8643 0 2.53721 0Z" fill="#1E1E1E"/>
</g>
</svg>
