<svg width="14" height="14" viewBox="0 0 14 14" fill="none" xmlns="http://www.w3.org/2000/svg">
<path d="M1 11.3333C1 10.4493 1.31607 9.60143 1.87868 8.97631C2.44129 8.35119 3.20435 8 4 8H10C10.7956 8 11.5587 8.35119 12.1213 8.97631C12.6839 9.60143 13 10.4493 13 11.3333C13 11.7754 12.842 12.1993 12.5607 12.5118C12.2794 12.8244 11.8978 13 11.5 13H2.5C2.10218 13 1.72064 12.8244 1.43934 12.5118C1.15804 12.1993 1 11.7754 1 11.3333Z" fill="#1E1E1E" stroke="#1E1E1E" stroke-width="2" stroke-linejoin="round"/>
<path d="M7 5C8.10457 5 9 4.10457 9 3C9 1.89543 8.10457 1 7 1C5.89543 1 5 1.89543 5 3C5 4.10457 5.89543 5 7 5Z" fill="#1E1E1E" stroke="#1E1E1E" stroke-width="2"/>
</svg>
